<svg width="710" height="559" viewBox="0 0 710 559" fill="none" xmlns="http://www.w3.org/2000/svg">
<g clip-path="url(#clip0)">
<path d="M634.137 0.365005H10.2749C4.75207 0.365005 0.274918 4.84216 0.274918 10.365V402.723C0.274918 408.245 4.75208 412.723 10.2749 412.723H634.137C639.659 412.723 644.137 408.245 644.137 402.723V10.365C644.137 4.84216 639.659 0.365005 634.137 0.365005Z" fill="white"/>
<path d="M625.725 52.0849H18.686V388.328H625.725V52.0849Z" fill="white"/>
<path d="M632.862 0H11C10.0714 0 9.6071 0 9.21541 0.0308267C4.31165 0.416761 0.416761 4.31165 0.0308267 9.21541C0 9.6071 0 10.0714 0 11V16.3536C0 17.2822 0 17.7465 0.0308267 18.1382C0.416761 23.042 4.31165 26.9368 9.21541 27.3228C9.6071 27.3536 10.0714 27.3536 11 27.3536H632.862C633.79 27.3536 634.255 27.3536 634.646 27.3228C639.55 26.9368 643.445 23.042 643.831 18.1382C643.862 17.7465 643.862 17.2822 643.862 16.3536V11C643.862 10.0714 643.862 9.6071 643.831 9.21541C643.445 4.31165 639.55 0.416761 634.646 0.0308267C634.255 0 633.79 0 632.862 0Z" fill="#113CFC"/>
<path d="M643.862 10H0V37.3536H643.862V10Z" fill="#113CFC"/>
<path d="M20.0698 24.1396C22.8697 24.1396 25.1396 21.8697 25.1396 19.0698C25.1396 16.2698 22.8697 14 20.0698 14C17.2698 14 15 16.2698 15 19.0698C15 21.8697 17.2698 24.1396 20.0698 24.1396Z" fill="#FF5C58"/>
<path d="M39.3134 24.1396C42.1133 24.1396 44.3832 21.8697 44.3832 19.0698C44.3832 16.2698 42.1133 14 39.3134 14C36.5134 14 34.2436 16.2698 34.2436 19.0698C34.2436 21.8697 36.5134 24.1396 39.3134 24.1396Z" fill="#77D970"/>
<path d="M58.557 24.1396C61.357 24.1396 63.6268 21.8697 63.6268 19.0698C63.6268 16.2698 61.357 14 58.557 14C55.757 14 53.4872 16.2698 53.4872 19.0698C53.4872 21.8697 55.757 24.1396 58.557 24.1396Z" fill="#FEE440"/>
<path d="M224.824 86.9728H78.8438C76.0824 86.9728 73.8438 89.2114 73.8438 91.9728V348.44C73.8438 351.201 76.0824 353.44 78.8438 353.44H224.824C227.586 353.44 229.824 351.201 229.824 348.44V91.9728C229.824 89.2114 227.586 86.9728 224.824 86.9728Z" fill="#1597E5" fill-opacity="0.5"/>
<path d="M381.733 86.9728H261.75C258.988 86.9728 256.75 89.2114 256.75 91.9728V155.321C256.75 158.082 258.988 160.321 261.75 160.321H381.733C384.495 160.321 386.733 158.082 386.733 155.321V91.9728C386.733 89.2114 384.495 86.9728 381.733 86.9728Z" fill="#E02401" fill-opacity="0.8"/>
<path d="M381.733 180.747H261.75C258.988 180.747 256.75 182.985 256.75 185.747V254.666C256.75 257.427 258.988 259.666 261.75 259.666H381.733C384.495 259.666 386.733 257.427 386.733 254.666V185.747C386.733 182.985 384.495 180.747 381.733 180.747Z" fill="#1597E5" fill-opacity="0.5"/>
<path d="M381.733 280.092H261.75C258.988 280.092 256.75 282.33 256.75 285.092V348.44C256.75 351.201 258.988 353.44 261.75 353.44H381.733C384.495 353.44 386.733 351.201 386.733 348.44V285.092C386.733 282.33 384.495 280.092 381.733 280.092Z" fill="#1597E5" fill-opacity="0.5"/>
<path d="M565.568 86.9728H419.587C416.826 86.9728 414.587 89.2114 414.587 91.9728V198.098C414.587 200.859 416.826 203.098 419.587 203.098H565.568C568.329 203.098 570.568 200.859 570.568 198.098V91.9728C570.568 89.2114 568.329 86.9728 565.568 86.9728Z" fill="#1597E5" fill-opacity="0.5"/>
<path d="M565.568 237.315H419.587C416.826 237.315 414.587 239.553 414.587 242.315V348.44C414.587 351.201 416.826 353.44 419.587 353.44H565.568C568.329 353.44 570.568 351.201 570.568 348.44V242.315C570.568 239.553 568.329 237.315 565.568 237.315Z" fill="#1597E5" fill-opacity="0.5"/>
<path d="M510.479 211.44V186.44C510.479 177.555 514.008 169.034 520.29 162.752C526.573 156.469 535.094 152.94 543.979 152.94C552.863 152.94 561.384 156.469 567.667 162.752C573.949 169.034 577.479 177.555 577.479 186.44V211.44C577.477 212.633 577.003 213.777 576.159 214.62C575.315 215.464 574.172 215.939 572.979 215.94H514.979C513.785 215.939 512.642 215.464 511.798 214.62C510.954 213.777 510.48 212.633 510.479 211.44Z" fill="#2F2E41"/>
<path d="M593.514 536.786L581.698 540.056L563.462 496.038L580.901 491.212L593.514 536.786Z" fill="#FFB8B8"/>
<path d="M572.324 539.016L595.111 532.71L599.082 547.057L561.947 557.334C561.426 555.45 561.281 553.482 561.52 551.542C561.759 549.601 562.378 547.727 563.342 546.026C564.305 544.325 565.595 542.831 567.136 541.628C568.677 540.425 570.44 539.537 572.324 539.016Z" fill="#2F2E41"/>
<path d="M470.328 545.875H458.068L452.235 498.587H470.33L470.328 545.875Z" fill="#FFB8B8"/>
<path d="M449.311 542.372H472.955V557.258H434.424C434.424 555.304 434.809 553.368 435.557 551.562C436.305 549.755 437.402 548.114 438.784 546.732C440.166 545.349 441.808 544.253 443.614 543.505C445.42 542.757 447.356 542.372 449.311 542.372Z" fill="#2F2E41"/>
<path d="M455.545 281.598C456.42 282.779 457.543 283.754 458.836 284.454C460.128 285.154 461.559 285.563 463.026 285.65C464.494 285.737 465.963 285.502 467.329 284.96C468.696 284.419 469.927 283.584 470.937 282.515L503.527 297.173L500.562 278.842L470.069 267.733C468.16 266.156 465.74 265.335 463.267 265.423C460.793 265.512 458.438 266.505 456.648 268.214C454.858 269.923 453.757 272.23 453.553 274.696C453.35 277.163 454.058 279.619 455.545 281.598H455.545Z" fill="#FFB8B8"/>
<path d="M523.259 391.836C513.019 391.836 502.42 390.311 493.51 385.775C488.78 383.414 484.589 380.103 481.197 376.048C477.806 371.993 475.288 367.282 473.801 362.209C469.159 347.51 475.012 333.069 480.673 319.104C484.18 310.45 487.493 302.277 488.353 294.22L488.653 291.36C489.992 278.512 491.148 267.417 497.55 263.255C500.868 261.098 505.33 260.975 511.191 262.878L566.236 280.759L564.212 385.249L563.877 385.361C563.589 385.458 544.185 391.836 523.259 391.836Z" fill="#2F2E41"/>
<path d="M510.229 230.348C510.229 230.348 537.229 222.348 558.229 225.348C558.229 225.348 546.229 291.348 550.229 313.348C554.229 335.348 480.729 321.848 495.729 300.848L500.729 275.848C500.729 275.848 490.729 265.848 499.729 253.848L510.229 230.348Z" fill="#113CFC"/>
<path d="M496.948 389.855L463.672 383.616L475.29 294.209C476.071 291.713 494.068 235.066 502.241 232.001C508.176 229.911 514.245 228.225 520.407 226.954L521.591 226.717L514.919 236.726L488.354 300.38L496.948 389.855Z" fill="#2F2E41"/>
<path d="M479.61 534.919L436.615 527.753L460.743 429.229L496.646 294.492L497 296.884C497.029 297.063 500.383 314.664 550.151 306.854L550.589 306.786L550.71 307.212L610.862 519.75L561.871 527.915L517.188 372.848L479.61 534.919Z" fill="#2F2E41"/>
<path d="M539.202 406.587L539.229 405.83C539.259 404.99 542.217 321.458 541.229 287.863C540.237 254.154 551.151 224.962 551.261 224.671L551.35 224.437L551.591 224.367C565.711 220.334 577.96 232.373 578.082 232.495L578.254 232.667L574.233 265.843L591.449 386.484L539.202 406.587Z" fill="#2F2E41"/>
<path d="M537.095 215.358C550.659 215.358 561.656 204.362 561.656 190.797C561.656 177.232 550.659 166.236 537.095 166.236C523.53 166.236 512.534 177.232 512.534 190.797C512.534 204.362 523.53 215.358 537.095 215.358Z" fill="#FFB8B8"/>
<path d="M502.553 188.44C502.561 181.414 505.356 174.678 510.324 169.71C515.292 164.742 522.027 161.948 529.053 161.94H534.053C541.079 161.948 547.815 164.742 552.783 169.71C557.751 174.678 560.545 181.414 560.553 188.44V188.94H549.987L546.383 178.848L545.662 188.94H540.201L538.383 183.848L538.019 188.94H502.553V188.44Z" fill="#2F2E41"/>
<path d="M534.678 218.751C534.181 218.08 533.885 217.281 533.823 216.449C533.761 215.616 533.935 214.782 534.325 214.044C539.624 203.966 547.043 185.344 537.195 173.86L536.488 173.035H565.075V215.954L539.106 220.536C538.843 220.583 538.576 220.606 538.309 220.607C537.6 220.607 536.901 220.439 536.27 220.116C535.639 219.793 535.093 219.326 534.678 218.751Z" fill="#2F2E41"/>
<path d="M419.58 41.5464C399.576 24.6667 375.097 13.9652 349.122 10.7441C323.147 7.52301 296.795 11.9212 273.274 23.4034C249.753 34.8857 230.077 52.9569 216.639 75.4182C203.201 97.8794 196.581 123.762 197.585 149.917C198.59 176.072 207.174 201.371 222.294 222.736C237.415 244.101 258.419 260.61 282.751 270.256C307.083 279.901 333.694 282.266 359.346 277.063C384.998 271.86 408.584 259.313 427.235 240.949L592.853 380.697C595.373 382.827 598.636 383.87 601.925 383.594C605.213 383.319 608.257 381.748 610.388 379.228C612.518 376.709 613.56 373.445 613.285 370.157C613.009 366.869 611.439 363.825 608.919 361.694L608.901 361.679L443.283 221.931C462.522 194.318 470.757 160.515 466.372 127.147C461.988 93.7794 445.3 63.2516 419.58 41.5464ZM408.903 208.474C396.001 223.765 378.854 234.886 359.631 240.432C340.408 245.978 319.972 245.699 300.907 239.63C281.843 233.562 265.006 221.976 252.526 206.338C240.046 190.701 232.483 171.714 230.794 151.778C229.106 131.842 233.366 111.853 243.037 94.3391C252.709 76.8249 267.357 62.5719 285.128 53.3824C302.9 44.193 322.998 40.4799 342.88 42.7127C362.762 44.9454 381.536 53.0238 396.827 65.9262H396.827C406.979 74.493 415.346 84.9758 421.447 96.7758C427.549 108.576 431.266 121.462 432.388 134.699C433.509 147.936 432.012 161.264 427.983 173.922C423.953 186.581 417.47 198.321 408.903 208.474Z" fill="#193498"/>
<path opacity="0.3" d="M266.355 220.551C246.949 204.174 234.411 181.099 231.231 155.906C228.051 130.714 234.462 105.247 249.19 84.5617C247.256 86.5095 245.386 88.5495 243.58 90.6816C235.014 100.834 228.53 112.575 224.501 125.233C220.471 137.892 218.975 151.22 220.096 164.457C221.217 177.693 224.935 190.58 231.037 202.38C237.138 214.18 245.504 224.663 255.657 233.23C265.81 241.796 277.55 248.28 290.209 252.309C302.867 256.339 316.195 257.835 329.432 256.714C342.669 255.592 355.555 251.875 367.355 245.773C379.155 239.672 389.638 231.306 398.205 221.153C400.006 219.018 401.702 216.832 403.294 214.594C385.381 232.592 361.356 243.195 335.987 244.299C310.619 245.402 285.763 236.925 266.355 220.551Z" fill="black"/>
<path d="M544.98 324.536C546.408 324.885 547.896 324.917 549.337 324.629C550.779 324.341 552.14 323.741 553.324 322.87C554.509 321.999 555.488 320.88 556.193 319.59C556.898 318.299 557.311 316.87 557.404 315.403L591.837 305.846L577.84 293.642L547.288 304.589C544.813 304.597 542.427 305.512 540.581 307.161C538.735 308.81 537.559 311.079 537.274 313.538C536.99 315.996 537.617 318.474 539.038 320.501C540.458 322.528 542.572 323.964 544.98 324.536Z" fill="#FFB8B8"/>
<path d="M559.292 319.477L557.197 299.571L585.959 283.702L567.207 261.002L570.266 235.502L577.886 232.236L578.123 232.541C581.716 237.161 613.229 277.822 613.229 282.848C613.229 288.011 607.2 303.171 598.952 307.295C590.996 311.273 561.121 319.005 559.854 319.333L559.292 319.477Z" fill="#2F2E41"/>
<path d="M708.533 558.594H327.533C327.267 558.594 327.013 558.489 326.826 558.301C326.638 558.113 326.533 557.859 326.533 557.594C326.533 557.329 326.638 557.074 326.826 556.887C327.013 556.699 327.267 556.594 327.533 556.594H708.533C708.798 556.594 709.052 556.699 709.24 556.887C709.427 557.074 709.533 557.329 709.533 557.594C709.533 557.859 709.427 558.113 709.24 558.301C709.052 558.489 708.798 558.594 708.533 558.594Z" fill="#CCCCCC"/>
</g>
<defs>
<clipPath id="clip0">
<rect width="709.533" height="558.594" fill="white"/>
</clipPath>
</defs>
</svg>
