<svg width="175" height="175" viewBox="0 0 175 175" fill="none" xmlns="http://www.w3.org/2000/svg">
<path d="M45.2754 45.2754C36.7604 53.809 31.9782 65.3718 31.9782 77.427C31.9782 89.4822 36.7604 101.045 45.2755 109.578C50.3685 114.671 56.599 118.479 63.4534 120.69C70.3077 122.901 77.5894 123.451 84.6979 122.294C91.2672 121.245 97.5236 118.757 103.02 115.009L128.063 140.052C130.264 138.27 132.369 136.374 134.371 134.371C136.374 132.369 138.27 130.264 140.052 128.063L115.009 103.02C118.757 97.5236 121.245 91.2672 122.294 84.6979C123.451 77.5894 122.901 70.3077 120.69 63.4534C118.479 56.599 114.671 50.3685 109.579 45.2755C101.045 36.7604 89.4822 31.9782 77.427 31.9782C65.3718 31.9782 53.809 36.7604 45.2754 45.2754ZM105.361 71.764C106.66 78.1935 105.713 84.874 102.678 90.6889C101.339 93.2325 99.6239 95.5591 97.5896 97.5896C95.5591 99.6239 93.2325 101.339 90.6889 102.678C84.874 105.713 78.1935 106.66 71.764 105.361C66.268 104.263 61.2216 101.558 57.2644 97.5896C51.9248 92.238 48.926 84.9868 48.926 77.427C48.926 69.8671 51.9248 62.616 57.2644 57.2644C62.616 51.9247 69.8671 48.926 77.427 48.926C84.9868 48.926 92.238 51.9248 97.5896 57.2644C101.559 61.2216 104.263 66.268 105.361 71.764Z" fill="#1E212D"/>
<path d="M99.462 137.058L112.382 149.978C82.413 164.389 45.3001 159.188 20.483 134.371C18.8931 132.781 18 130.625 18 128.377C18 126.128 18.8931 123.972 20.483 122.382C22.0728 120.792 24.2291 119.899 26.4774 119.899C28.7258 119.899 30.8821 120.792 32.4719 122.382C41.0727 130.967 51.9511 136.911 63.8218 139.512C75.6925 142.112 88.0596 141.261 99.462 137.058Z" fill="#1E212D"/>
<path d="M134.371 20.483C159.188 45.3002 164.389 82.413 149.978 112.382L137.058 99.462C141.261 88.0597 142.112 75.6926 139.512 63.8218C136.911 51.9511 130.967 41.0728 122.382 32.472C120.792 30.8821 119.899 28.7258 119.899 26.4775C119.899 24.2291 120.792 22.0728 122.382 20.483C123.972 18.8931 126.128 18 128.377 18C130.625 18 132.781 18.8931 134.371 20.483Z" fill="#1E212D"/>
</svg>
